<svg id="visual" viewBox="0 0 900 600" width="900" height="600" xmlns="http://www.w3.org/2000/svg" xmlns:xlink="http://www.w3.org/1999/xlink" version="1.1"><rect x="0" y="0" width="900" height="600" fill="#EEEEEE"></rect><path d="M0 412L21.5 416.2C43 420.3 86 428.7 128.8 432.8C171.7 437 214.3 437 257.2 424.3C300 411.7 343 386.3 385.8 372.8C428.7 359.3 471.3 357.7 514.2 362.5C557 367.3 600 378.7 642.8 381C685.7 383.3 728.3 376.7 771.2 383C814 389.3 857 408.7 878.5 418.3L900 428L900 601L878.5 601C857 601 814 601 771.2 601C728.3 601 685.7 601 642.8 601C600 601 557 601 514.2 601C471.3 601 428.7 601 385.8 601C343 601 300 601 257.2 601C214.3 601 171.7 601 128.8 601C86 601 43 601 21.5 601L0 601Z" fill="#236279"></path><path d="M0 465L21.5 455.2C43 445.3 86 425.7 128.8 426.5C171.7 427.3 214.3 448.7 257.2 457.5C300 466.3 343 462.7 385.8 458.7C428.7 454.7 471.3 450.3 514.2 443.3C557 436.3 600 426.7 642.8 428.5C685.7 430.3 728.3 443.7 771.2 441.8C814 440 857 423 878.5 414.5L900 406L900 601L878.5 601C857 601 814 601 771.2 601C728.3 601 685.7 601 642.8 601C600 601 557 601 514.2 601C471.3 601 428.7 601 385.8 601C343 601 300 601 257.2 601C214.3 601 171.7 601 128.8 601C86 601 43 601 21.5 601L0 601Z" fill="#286f88"></path><path d="M0 451L21.5 459.2C43 467.3 86 483.7 128.8 488.2C171.7 492.7 214.3 485.3 257.2 475C300 464.7 343 451.3 385.8 452.5C428.7 453.7 471.3 469.3 514.2 476.2C557 483 600 481 642.8 476.5C685.7 472 728.3 465 771.2 466.7C814 468.3 857 478.7 878.5 483.8L900 489L900 601L878.5 601C857 601 814 601 771.2 601C728.3 601 685.7 601 642.8 601C600 601 557 601 514.2 601C471.3 601 428.7 601 385.8 601C343 601 300 601 257.2 601C214.3 601 171.7 601 128.8 601C86 601 43 601 21.5 601L0 601Z" fill="#2e7c98"></path><path d="M0 513L21.5 507.7C43 502.3 86 491.7 128.8 491.2C171.7 490.7 214.3 500.3 257.2 503.5C300 506.7 343 503.3 385.8 501.8C428.7 500.3 471.3 500.7 514.2 503.3C557 506 600 511 642.8 513.7C685.7 516.3 728.3 516.7 771.2 520C814 523.3 857 529.7 878.5 532.8L900 536L900 601L878.5 601C857 601 814 601 771.2 601C728.3 601 685.7 601 642.8 601C600 601 557 601 514.2 601C471.3 601 428.7 601 385.8 601C343 601 300 601 257.2 601C214.3 601 171.7 601 128.8 601C86 601 43 601 21.5 601L0 601Z" fill="#348aa8"></path><path d="M0 555L21.5 555.7C43 556.3 86 557.7 128.8 558C171.7 558.3 214.3 557.7 257.2 554C300 550.3 343 543.7 385.8 542.5C428.7 541.3 471.3 545.7 514.2 550.3C557 555 600 560 642.8 562.2C685.7 564.3 728.3 563.7 771.2 560.3C814 557 857 551 878.5 548L900 545L900 601L878.5 601C857 601 814 601 771.2 601C728.3 601 685.7 601 642.8 601C600 601 557 601 514.2 601C471.3 601 428.7 601 385.8 601C343 601 300 601 257.2 601C214.3 601 171.7 601 128.8 601C86 601 43 601 21.5 601L0 601Z" fill="#3a98b9"></path></svg>